<svg version="1.1" viewBox="0.0 0.0 197.95800524934384 122.44881889763779" fill="none" stroke="none" stroke-linecap="square" stroke-miterlimit="10" xmlns:xlink="http://www.w3.org/1999/xlink" xmlns="http://www.w3.org/2000/svg"><clipPath id="p.0"><path d="m0 0l197.95801 0l0 122.44882l-197.95801 0l0 -122.44882z" clip-rule="nonzero"/></clipPath><g clip-path="url(#p.0)"><path fill="#000000" fill-opacity="0.0" d="m0 0l197.95801 0l0 122.44882l-197.95801 0z" fill-rule="evenodd"/><path fill="#d9d9d9" d="m11.794279 61.22384l0 0c0 -30.99062 25.122862 -56.113483 56.11348 -56.113483l62.14273 0l0 0c14.882233 0 29.154907 5.9119396 39.678238 16.435259c10.523315 10.523321 16.435257 24.796003 16.435257 39.678223l0 0l0 0c0 30.990623 -25.122864 56.113487 -56.113495 56.113487l-62.14273 0c-30.99062 0 -56.11348 -25.122864 -56.11348 -56.113487z" fill-rule="evenodd"/><path stroke="#cc4125" stroke-width="8.0" stroke-linejoin="round" stroke-linecap="butt" d="m11.794279 61.22384l0 0c0 -30.99062 25.122862 -56.113483 56.11348 -56.113483l62.14273 0l0 0c14.882233 0 29.154907 5.9119396 39.678238 16.435259c10.523315 10.523321 16.435257 24.796003 16.435257 39.678223l0 0l0 0c0 30.990623 -25.122864 56.113487 -56.113495 56.113487l-62.14273 0c-30.99062 0 -56.11348 -25.122864 -56.11348 -56.113487z" fill-rule="evenodd"/><path fill="#b7b7b7" d="m151.02728 61.2204l0 0c0 -6.5832253 5.3361053 -11.919987 11.918518 -11.919987l0 0c3.1609802 0 6.192505 1.2558556 8.427658 3.4912834c2.2351685 2.2354317 3.49086 5.2673264 3.49086 8.428703l0 0c0 6.5832253 -5.3361053 11.919987 -11.918518 11.919987l0 0c-6.5824127 0 -11.918518 -5.3367615 -11.918518 -11.919987z" fill-rule="evenodd"/><path stroke="#cccccc" stroke-width="4.0" stroke-linejoin="round" stroke-linecap="butt" d="m151.02728 61.2204l0 0c0 -6.5832253 5.3361053 -11.919987 11.918518 -11.919987l0 0c3.1609802 0 6.192505 1.2558556 8.427658 3.4912834c2.2351685 2.2354317 3.49086 5.2673264 3.49086 8.428703l0 0c0 6.5832253 -5.3361053 11.919987 -11.918518 11.919987l0 0c-6.5824127 0 -11.918518 -5.3367615 -11.918518 -11.919987z" fill-rule="evenodd"/><path fill="#999999" d="m164.80772 72.05636l0 0c-7.6127014 0 -13.784012 -4.8262863 -13.784012 -10.779812c0 -5.9535255 6.1713104 -10.779812 13.784012 -10.779812l0 0c-4.5172424 2.4520721 -7.2115173 6.479492 -7.2115173 10.779812c0 4.3003197 2.694275 8.32774 7.2115173 10.779812z" fill-rule="evenodd"/><path fill="#000000" fill-opacity="0.0" d="m104.4767 89.75359l-11.212601 0" fill-rule="evenodd"/><path stroke="#cc4125" stroke-width="4.0" stroke-linejoin="round" stroke-linecap="butt" d="m104.4767 89.75359l-11.212601 0" fill-rule="evenodd"/><path fill="#000000" fill-opacity="0.0" d="m104.4767 75.450836l-11.212601 0" fill-rule="evenodd"/><path stroke="#cc4125" stroke-width="4.0" stroke-linejoin="round" stroke-linecap="butt" d="m104.4767 75.450836l-11.212601 0" fill-rule="evenodd"/><path fill="#000000" fill-opacity="0.0" d="m104.4767 61.4041l-11.212601 0" fill-rule="evenodd"/><path stroke="#cc4125" stroke-width="4.0" stroke-linejoin="round" stroke-linecap="butt" d="m104.4767 61.4041l-11.212601 0" fill-rule="evenodd"/><path fill="#000000" fill-opacity="0.0" d="m93.27421 32.810898l11.212601 0" fill-rule="evenodd"/><path stroke="#cc4125" stroke-width="4.0" stroke-linejoin="round" stroke-linecap="butt" d="m93.27421 32.810898l11.212601 0" fill-rule="evenodd"/><path fill="#000000" fill-opacity="0.0" d="m104.4767 47.10307l-11.212601 0" fill-rule="evenodd"/><path stroke="#cc4125" stroke-width="4.0" stroke-linejoin="round" stroke-linecap="butt" d="m104.4767 47.10307l-11.212601 0" fill-rule="evenodd"/><path fill="#000000" fill-opacity="0.0" d="m104.4767 103.92833l-69.95276 0" fill-rule="evenodd"/><path stroke="#cc4125" stroke-width="8.0" stroke-linejoin="round" stroke-linecap="butt" d="m104.4767 103.92833l-69.95276 0" fill-rule="evenodd"/><path fill="#000000" fill-opacity="0.0" d="m93.28484 18.534733c-12.346664 0 -24.701202 3.5669289 -24.693329 7.1338577c0.007873535 3.5669308 12.378159 7.1338577 24.756317 7.1338577" fill-rule="evenodd"/><path stroke="#cc4125" stroke-width="8.0" stroke-linejoin="round" stroke-linecap="butt" d="m93.28484 18.534733c-12.346664 0 -24.701202 3.5669289 -24.693329 7.1338577c0.007873535 3.5669308 12.378159 7.1338577 24.756317 7.1338577" fill-rule="evenodd"/><path fill="#000000" fill-opacity="0.0" d="m93.27421 47.11869c-12.341415 0 -24.690704 3.5669289 -24.68283 7.1338577c0.007881165 3.5669289 12.37291 7.1338615 24.74582 7.1338615" fill-rule="evenodd"/><path stroke="#cc4125" stroke-width="8.0" stroke-linejoin="round" stroke-linecap="butt" d="m93.27421 47.11869c-12.341415 0 -24.690704 3.5669289 -24.68283 7.1338577c0.007881165 3.5669289 12.37291 7.1338615 24.74582 7.1338615" fill-rule="evenodd"/><path fill="#000000" fill-opacity="0.0" d="m104.4767 47.10307c12.341415 0 24.674957 -3.5748062 24.68283 -7.1496086c0.007873535 -3.5748024 -12.309921 -7.149605 -24.619843 -7.149605" fill-rule="evenodd"/><path stroke="#cc4125" stroke-width="8.0" stroke-linejoin="round" stroke-linecap="butt" d="m104.4767 47.10307c12.341415 0 24.674957 -3.5748062 24.68283 -7.1496086c0.007873535 -3.5748024 -12.309921 -7.149605 -24.619843 -7.149605" fill-rule="evenodd"/><path fill="#000000" fill-opacity="0.0" d="m104.4767 75.450836c12.341415 0 24.674957 -3.5118103 24.68283 -7.0236206c0.007873535 -3.5118103 -12.309921 -7.0236206 -24.619843 -7.0236206" fill-rule="evenodd"/><path stroke="#cc4125" stroke-width="8.0" stroke-linejoin="round" stroke-linecap="butt" d="m104.4767 75.450836c12.341415 0 24.674957 -3.5118103 24.68283 -7.0236206c0.007873535 -3.5118103 -12.309921 -7.0236206 -24.619843 -7.0236206" fill-rule="evenodd"/><path fill="#000000" fill-opacity="0.0" d="m93.27421 75.4462c-12.341415 0 -24.690704 3.5748062 -24.68283 7.149605c0.007881165 3.5748062 12.37291 7.149605 24.74582 7.149605" fill-rule="evenodd"/><path stroke="#cc4125" stroke-width="8.0" stroke-linejoin="round" stroke-linecap="butt" d="m93.27421 75.4462c-12.341415 0 -24.690704 3.5748062 -24.68283 7.149605c0.007881165 3.5748062 12.37291 7.149605 24.74582 7.149605" fill-rule="evenodd"/><path fill="#000000" fill-opacity="0.0" d="m104.4767 103.92833c12.341415 0 24.674957 -3.5433044 24.68283 -7.086609c0.007873535 -3.543312 -12.309921 -7.0866165 -24.619843 -7.0866165" fill-rule="evenodd"/><path stroke="#cc4125" stroke-width="8.0" stroke-linejoin="round" stroke-linecap="butt" d="m104.4767 103.92833c12.341415 0 24.674957 -3.5433044 24.68283 -7.086609c0.007873535 -3.543312 -12.309921 -7.0866165 -24.619843 -7.0866165" fill-rule="evenodd"/><path fill="#000000" fill-opacity="0.0" d="m93.28484 18.534733l69.95275 0" fill-rule="evenodd"/><path stroke="#cc4125" stroke-width="8.0" stroke-linejoin="round" stroke-linecap="butt" d="m93.28484 18.534733l69.95275 0" fill-rule="evenodd"/><path fill="#cc4125" d="m93.28484 14.610936l0 7.8475943l2.7434616 0l0 -7.8475943z" fill-rule="evenodd"/><path fill="#cc4125" d="m93.27421 28.919004l0 7.7837925l14.674362 0l0 -7.7837925z" fill-rule="evenodd"/><path fill="#cc4125" d="m89.80234 29.09978l0 7.40098l14.674362 0l0 -7.40098z" fill-rule="evenodd"/><path fill="#cc4125" d="m93.27421 43.099194l0 8.038998l14.674362 0l0 -8.038998z" fill-rule="evenodd"/><path fill="#cc4125" d="m89.80234 43.17927l0 7.8475914l14.674362 0l0 -7.8475914z" fill-rule="evenodd"/><path fill="#cc4125" d="m93.27421 57.406967l0 7.975197l14.674362 0l0 -7.975197z" fill-rule="evenodd"/><path fill="#cc4125" d="m89.80234 57.384598l0 8.039001l14.674362 0l0 -8.039001z" fill-rule="evenodd"/><path fill="#cc4125" d="m93.27421 71.4586l0 7.975197l14.674362 0l0 -7.975197z" fill-rule="evenodd"/><path fill="#cc4125" d="m89.80234 71.59084l0 7.7199936l14.674362 0l0 -7.7199936z" fill-rule="evenodd"/><path fill="#cc4125" d="m93.27421 85.63879l0 8.230408l14.674362 0l0 -8.230408z" fill-rule="evenodd"/><path fill="#cc4125" d="m89.80234 85.7979l0 7.911392l14.674362 0l0 -7.911392z" fill-rule="evenodd"/><path fill="#cc4125" d="m163.22731 14.350285l0 8.358006l2.7434692 0l0 -8.358006z" fill-rule="evenodd"/><path fill="#cc4125" d="m89.80234 100.00453l0 7.847595l14.674362 0l0 -7.847595z" fill-rule="evenodd"/><path fill="#cc4125" d="m31.785439 99.946365l0 7.975197l2.7434692 0l0 -7.975197z" fill-rule="evenodd"/><path fill="#cc4125" d="m93.27421 99.80805l0 8.230408l14.674362 0l0 -8.230408z" fill-rule="evenodd"/><path fill="#b7b7b7" d="m22.935852 61.21943l0 0c0 -6.5641785 5.3219757 -11.885498 11.886967 -11.885498l0 0c3.1526184 0 6.176117 1.2522163 8.405357 3.481182c2.2292366 2.228962 3.4816093 5.2520866 3.4816093 8.404316l0 0c0 6.5641785 -5.3219757 11.885498 -11.886967 11.885498l0 0c-6.564991 0 -11.886967 -5.3213196 -11.886967 -11.885498z" fill-rule="evenodd"/><path stroke="#cccccc" stroke-width="4.0" stroke-linejoin="round" stroke-linecap="butt" d="m22.935852 61.21943l0 0c0 -6.5641785 5.3219757 -11.885498 11.886967 -11.885498l0 0c3.1526184 0 6.176117 1.2522163 8.405357 3.481182c2.2292366 2.228962 3.4816093 5.2520866 3.4816093 8.404316l0 0c0 6.5641785 -5.3219757 11.885498 -11.886967 11.885498l0 0c-6.564991 0 -11.886967 -5.3213196 -11.886967 -11.885498z" fill-rule="evenodd"/><path fill="#999999" d="m36.658485 72.0064l0 0c-7.5807724 0 -13.726202 -4.8083725 -13.726202 -10.739807c0 -5.931431 6.1454296 -10.739807 13.726202 -10.739807l0 0c-4.4982986 2.442974 -7.1812763 6.455448 -7.1812763 10.739807c0 4.284363 2.6829777 8.296837 7.1812763 10.739807z" fill-rule="evenodd"/></g></svg>