<svg version="1.1" viewBox="0.0 0.0 187.36745406824147 205.26246719160105" fill="none" stroke="none" stroke-linecap="square" stroke-miterlimit="10" xmlns:xlink="http://www.w3.org/1999/xlink" xmlns="http://www.w3.org/2000/svg"><clipPath id="p.0"><path d="m0 0l187.36745 0l0 205.26247l-187.36745 0l0 -205.26247z" clip-rule="nonzero"/></clipPath><g clip-path="url(#p.0)"><path fill="#000000" fill-opacity="0.0" d="m0 0l187.36745 0l0 205.26247l-187.36745 0z" fill-rule="evenodd"/><path fill="#d9d9d9" d="m70.20611 181.17165l7.244095 0l0 20.440933l-7.244095 0z" fill-rule="evenodd"/><path stroke="#b7b7b7" stroke-width="2.0" stroke-linejoin="round" stroke-linecap="butt" d="m70.20611 181.17165l7.244095 0l0 20.440933l-7.244095 0z" fill-rule="evenodd"/><path fill="#d9d9d9" d="m109.92264 181.17165l7.244095 0l0 20.440933l-7.244095 0z" fill-rule="evenodd"/><path stroke="#b7b7b7" stroke-width="2.0" stroke-linejoin="round" stroke-linecap="butt" d="m109.92264 181.17165l7.244095 0l0 20.440933l-7.244095 0z" fill-rule="evenodd"/><path fill="#b7b7b7" d="m93.68987 41.399986l0 0l0 0c12.31691 0 24.129341 4.892872 32.838707 13.602238c8.709366 8.709366 13.602234 20.521801 13.602234 32.83871l0 68.86614c0 4.272461E-4 -3.3569336E-4 7.6293945E-4 -7.6293945E-4 7.6293945E-4l-92.88112 -7.6293945E-4l0 0c-4.272461E-4 0 -7.7056885E-4 -3.5095215E-4 -7.7056885E-4 -7.7819824E-4l7.7056885E-4 -68.865364l0 0c0 -25.648628 20.792324 -46.44095 46.440945 -46.44095z" fill-rule="evenodd"/><path stroke="#666666" stroke-width="2.0" stroke-linejoin="round" stroke-linecap="butt" d="m93.68987 41.399986l0 0l0 0c12.31691 0 24.129341 4.892872 32.838707 13.602238c8.709366 8.709366 13.602234 20.521801 13.602234 32.83871l0 68.86614c0 4.272461E-4 -3.3569336E-4 7.6293945E-4 -7.6293945E-4 7.6293945E-4l-92.88112 -7.6293945E-4l0 0c-4.272461E-4 0 -7.7056885E-4 -3.5095215E-4 -7.7056885E-4 -7.7819824E-4l7.7056885E-4 -68.865364l0 0c0 -25.648628 20.792324 -46.44095 46.440945 -46.44095z" fill-rule="evenodd"/><path fill="#efefef" d="m62.50019 65.36619l0 0c-2.4613647 -3.444172 0.9511452 -10.085869 7.6220474 -14.834648l0 0c6.670906 -4.7487755 14.074066 -5.8063736 16.53543 -2.3622017l0 0c2.4613647 3.444168 -0.95114136 10.085865 -7.6220474 14.834644l0 0c-6.6708984 4.7487793 -14.074066 5.8063736 -16.53543 2.3622055z" fill-rule="evenodd"/><path fill="#efefef" d="m54.1742 80.14517l0 0c-1.9308205 -0.9306183 -2.3397598 -4.0540543 -0.9133835 -6.9763794l0 0c1.4263725 -2.9223251 4.147915 -4.5369186 6.078739 -3.6062927l0 0c1.9308205 0.9306183 2.3397598 4.0540466 0.9133873 6.976372l0 0c-1.4263763 2.9223251 -4.1479187 4.5369263 -6.078743 3.6063004z" fill-rule="evenodd"/><path fill="#999999" d="m70.20593 117.90816l46.960625 0l0 38.803146l-46.960625 0z" fill-rule="evenodd"/><path fill="#999999" d="m35.00663 160.77895l0 0c0 -2.2526703 1.8261528 -4.078827 4.078823 -4.078827l109.196686 0c1.0817719 0 2.1192322 0.42973328 2.8841705 1.1946564c0.7649231 0.76493835 1.1946564 1.8023987 1.1946564 2.8841705l0 16.314789c0 2.2526703 -1.8261566 4.078827 -4.078827 4.078827l-109.196686 0c-2.2526703 0 -4.078823 -1.8261566 -4.078823 -4.078827z" fill-rule="evenodd"/><path stroke="#666666" stroke-width="2.0" stroke-linejoin="round" stroke-linecap="butt" d="m35.00663 160.77895l0 0c0 -2.2526703 1.8261528 -4.078827 4.078823 -4.078827l109.196686 0c1.0817719 0 2.1192322 0.42973328 2.8841705 1.1946564c0.7649231 0.76493835 1.1946564 1.8023987 1.1946564 2.8841705l0 16.314789c0 2.2526703 -1.8261566 4.078827 -4.078827 4.078827l-109.196686 0c-2.2526703 0 -4.078823 -1.8261566 -4.078823 -4.078827z" fill-rule="evenodd"/></g></svg>