<svg version="1.1" viewBox="0.0 0.0 100.0 100.0" fill="none" stroke="none" stroke-linecap="square" stroke-miterlimit="10" xmlns:xlink="http://www.w3.org/1999/xlink" xmlns="http://www.w3.org/2000/svg"><clipPath id="p.0"><path d="m0 0l100.0 0l0 100.0l-100.0 0l0 -100.0z" clip-rule="nonzero"/></clipPath><g clip-path="url(#p.0)"><path fill="#000000" fill-opacity="0.0" d="m0 0l100.0 0l0 100.0l-100.0 0z" fill-rule="evenodd"/><path fill="#efefef" d="m8.43451 49.999664l0 0c0 -22.95578 18.609337 -41.565117 41.56512 -41.565117l0 0c11.023754 0 21.596004 4.3791695 29.390972 12.174141c7.7949753 7.7949715 12.174141 18.367222 12.174141 29.390976l0 0c0 22.95578 -18.609337 41.565117 -41.565113 41.565117l0 0c-22.955782 0 -41.56512 -18.609337 -41.56512 -41.565117z" fill-rule="evenodd"/><path stroke="#b7b7b7" stroke-width="8.0" stroke-linejoin="round" stroke-linecap="butt" d="m8.43451 49.999664l0 0c0 -22.95578 18.609337 -41.565117 41.56512 -41.565117l0 0c11.023754 0 21.596004 4.3791695 29.390972 12.174141c7.7949753 7.7949715 12.174141 18.367222 12.174141 29.390976l0 0c0 22.95578 -18.609337 41.565117 -41.565113 41.565117l0 0c-22.955782 0 -41.56512 -18.609337 -41.56512 -41.565117z" fill-rule="evenodd"/><path fill="#ffffff" d="m22.909216 40.63194l0 0c-3.21381 -3.21381 -2.1681423 -9.470093 2.3355637 -13.973799l0 0c4.503704 -4.503704 10.759989 -5.5493717 13.973795 -2.3355637l0 0c3.21381 3.21381 2.1681442 9.470091 -2.3355637 13.973799l0 0c-4.503704 4.503704 -10.759987 5.5493736 -13.973795 2.3355637z" fill-rule="evenodd"/></g></svg>