<svg version="1.1" viewBox="0.0 0.0 100.0 100.0" fill="none" stroke="none" stroke-linecap="square" stroke-miterlimit="10" xmlns:xlink="http://www.w3.org/1999/xlink" xmlns="http://www.w3.org/2000/svg"><clipPath id="p.0"><path d="m0 0l100.0 0l0 100.0l-100.0 0l0 -100.0z" clip-rule="nonzero"/></clipPath><g clip-path="url(#p.0)"><path fill="#000000" fill-opacity="0.0" d="m0 0l100.0 0l0 100.0l-100.0 0z" fill-rule="evenodd"/><path fill="#cc0000" d="m8.43373 49.791004l0 0c0 -22.955782 18.609337 -41.565117 41.565117 -41.565117l0 0c11.023754 0 21.596008 4.3791704 29.390976 12.174141c7.7949753 7.7949734 12.174141 18.367224 12.174141 29.390978l0 0c0 22.955784 -18.609337 41.56512 -41.565117 41.56512l0 0c-22.955782 0 -41.565117 -18.609337 -41.565117 -41.56512z" fill-rule="evenodd"/><path stroke="#990000" stroke-width="8.0" stroke-linejoin="round" stroke-linecap="butt" d="m8.43373 49.791004l0 0c0 -22.955782 18.609337 -41.565117 41.565117 -41.565117l0 0c11.023754 0 21.596008 4.3791704 29.390976 12.174141c7.7949753 7.7949734 12.174141 18.367224 12.174141 29.390978l0 0c0 22.955784 -18.609337 41.56512 -41.565117 41.56512l0 0c-22.955782 0 -41.565117 -18.609337 -41.565117 -41.56512z" fill-rule="evenodd"/><path fill="#ff0000" d="m22.908434 40.423275l0 0c-3.213808 -3.2138062 -2.1681423 -9.470089 2.3355637 -13.973795l0 0c4.503706 -4.503706 10.759989 -5.5493736 13.973799 -2.3355637l0 0c3.2138062 3.213808 2.1681404 9.470091 -2.3355637 13.973795l0 0c-4.503708 4.503708 -10.759989 5.5493736 -13.973799 2.3355637z" fill-rule="evenodd"/></g></svg>