<svg version="1.1" viewBox="0.0 0.0 187.36745406824147 205.26246719160105" fill="none" stroke="none" stroke-linecap="square" stroke-miterlimit="10" xmlns:xlink="http://www.w3.org/1999/xlink" xmlns="http://www.w3.org/2000/svg"><clipPath id="p.0"><path d="m0 0l187.36745 0l0 205.26247l-187.36745 0l0 -205.26247z" clip-rule="nonzero"/></clipPath><g clip-path="url(#p.0)"><path fill="#000000" fill-opacity="0.0" d="m0 0l187.36745 0l0 205.26247l-187.36745 0z" fill-rule="evenodd"/><path fill="#ffe599" d="m174.23131 86.28565l-24.408203 14.910652l0 -29.821304zm-23.595398 -56.95262l-6.7115936 27.805614l-21.08657 -21.086567zm-56.945168 -23.587946l14.910652 24.408201l-29.821312 0zm-56.95262 23.587946l27.805618 6.7190475l-21.08657 21.086567zm-23.587948 56.95262l24.408203 -14.910652l0 29.821304zm23.587948 56.945168l6.7190475 -27.798164l21.08657 21.08657zm56.95262 23.595398l-14.91066 -24.408203l29.821312 0zm56.945168 -23.595398l-27.798164 -6.7115936l21.08657 -21.08657zm-108.89545 -56.945168l0 0c0 -28.691345 23.258934 -51.950275 51.95028 -51.950275c28.691345 0 51.95028 23.25893 51.95028 51.950275c0 28.691345 -23.258934 51.95028 -51.95028 51.95028c-28.691345 0 -51.95028 -23.258934 -51.95028 -51.95028z" fill-rule="evenodd"/><path stroke="#fff2cc" stroke-width="8.0" stroke-linejoin="round" stroke-linecap="butt" d="m174.23131 86.28565l-24.408203 14.910652l0 -29.821304zm-23.595398 -56.95262l-6.7115936 27.805614l-21.08657 -21.086567zm-56.945168 -23.587946l14.910652 24.408201l-29.821312 0zm-56.95262 23.587946l27.805618 6.7190475l-21.08657 21.086567zm-23.587948 56.95262l24.408203 -14.910652l0 29.821304zm23.587948 56.945168l6.7190475 -27.798164l21.08657 21.08657zm56.95262 23.595398l-14.91066 -24.408203l29.821312 0zm56.945168 -23.595398l-27.798164 -6.7115936l21.08657 -21.08657zm-108.89545 -56.945168l0 0c0 -28.691345 23.258934 -51.950275 51.95028 -51.950275c28.691345 0 51.95028 23.25893 51.95028 51.950275c0 28.691345 -23.258934 51.95028 -51.95028 51.95028c-28.691345 0 -51.95028 -23.258934 -51.95028 -51.95028z" fill-rule="evenodd"/><path fill="#ffe599" d="m171.47281 65.45778l-19.718567 20.717987l-7.715973 -28.805218zm-37.527374 -48.907017l0.71151733 28.59476l-25.824028 -14.912153zm-61.108025 -8.050245l20.717987 19.718563l-28.805222 7.715967zm-48.908947 37.520164l28.596687 -0.7043152l-14.912151 25.824032zm-8.048316 61.11523l19.718567 -20.717987l7.7159653 28.805222zm37.518234 48.90175l-0.70238495 -28.589493l25.824024 14.912155zm61.11716 8.055511l-20.717987 -19.718567l28.805214 -7.7159576zm48.89982 -37.525436l-28.587555 0.7095871l14.91214 -25.824028zm-119.91907 -26.829277l0 0c-7.4235992 -27.713753 9.024818 -56.1982 36.738567 -63.6218c27.713753 -7.4235992 56.198204 9.024818 63.621803 36.738575c7.4235992 27.713745 -9.024811 56.198204 -36.73857 63.621803c-27.713753 7.4235992 -56.1982 -9.024826 -63.6218 -36.73858z" fill-rule="evenodd"/><path stroke="#fff2cc" stroke-width="8.0" stroke-linejoin="round" stroke-linecap="butt" d="m171.47281 65.45778l-19.718567 20.717987l-7.715973 -28.805218zm-37.527374 -48.907017l0.71151733 28.59476l-25.824028 -14.912153zm-61.108025 -8.050245l20.717987 19.718563l-28.805222 7.715967zm-48.908947 37.520164l28.596687 -0.7043152l-14.912151 25.824032zm-8.048316 61.11523l19.718567 -20.717987l7.7159653 28.805222zm37.518234 48.90175l-0.70238495 -28.589493l25.824024 14.912155zm61.11716 8.055511l-20.717987 -19.718567l28.805214 -7.7159576zm48.89982 -37.525436l-28.587555 0.7095871l14.91214 -25.824028zm-119.91907 -26.829277l0 0c-7.4235992 -27.713753 9.024818 -56.1982 36.738567 -63.6218c27.713753 -7.4235992 56.198204 9.024818 63.621803 36.738575c7.4235992 27.713745 -9.024811 56.198204 -36.73857 63.621803c-27.713753 7.4235992 -56.1982 -9.024826 -63.6218 -36.73858z" fill-rule="evenodd"/><path fill="#ffe599" d="m171.48553 107.123184l-27.43454 8.087227l7.715973 -28.805214zm-8.055527 -61.117165l-13.677322 25.121643l-14.912155 -25.824028zm-48.901733 -37.518234l8.087227 27.43453l-28.805214 -7.715967zm-61.11524 8.048317l25.119717 13.684536l-25.824028 14.912153zm-37.52016 48.908943l27.434532 -8.087227l-7.7159653 28.805214zm8.050246 61.108032l13.682606 -25.11251l14.912151 25.824028zm48.907013 37.527367l-8.087227 -27.43454l28.805214 7.715973zm61.109962 -8.057449l-25.11444 -13.6754l25.82402 -14.912155zm-90.45108 -83.1805l0 0c7.4235992 -27.713753 35.90805 -44.16217 63.621803 -36.73857c27.713753 7.4235992 44.162163 35.90805 36.738564 63.621803c-7.4235992 27.713753 -35.908043 44.162163 -63.621796 36.738564c-27.713753 -7.4235992 -44.16217 -35.908043 -36.73857 -63.621796z" fill-rule="evenodd"/><path stroke="#fff2cc" stroke-width="8.0" stroke-linejoin="round" stroke-linecap="butt" d="m171.48553 107.123184l-27.43454 8.087227l7.715973 -28.805214zm-8.055527 -61.117165l-13.677322 25.121643l-14.912155 -25.824028zm-48.901733 -37.518234l8.087227 27.43453l-28.805214 -7.715967zm-61.11524 8.048317l25.119717 13.684536l-25.824028 14.912153zm-37.52016 48.908943l27.434532 -8.087227l-7.7159653 28.805214zm8.050246 61.108032l13.682606 -25.11251l14.912151 25.824028zm48.907013 37.527367l-8.087227 -27.43454l28.805214 7.715973zm61.109962 -8.057449l-25.11444 -13.6754l25.82402 -14.912155zm-90.45108 -83.1805l0 0c7.4235992 -27.713753 35.90805 -44.16217 63.621803 -36.73857c27.713753 7.4235992 44.162163 35.90805 36.738564 63.621803c-7.4235992 27.713753 -35.908043 44.162163 -63.621796 36.738564c-27.713753 -7.4235992 -44.16217 -35.908043 -36.73857 -63.621796z" fill-rule="evenodd"/><path fill="#ffe599" d="m31.017828 86.2856l0 0c0 -34.60623 28.053896 -62.66013 62.660133 -62.66013l0 0c16.6185 0 32.55635 6.601673 44.307404 18.352726c11.751053 11.751057 18.352722 27.688904 18.352722 44.307404l0 0c0 34.60624 -28.053894 62.66014 -62.660126 62.66014l0 0c-34.60624 0 -62.660133 -28.053902 -62.660133 -62.66014z" fill-rule="evenodd"/><path stroke="#fff2cc" stroke-width="8.0" stroke-linejoin="round" stroke-linecap="butt" d="m31.017828 86.2856l0 0c0 -34.60623 28.053896 -62.66013 62.660133 -62.66013l0 0c16.6185 0 32.55635 6.601673 44.307404 18.352726c11.751053 11.751057 18.352722 27.688904 18.352722 44.307404l0 0c0 34.60624 -28.053894 62.66014 -62.660126 62.66014l0 0c-34.60624 0 -62.660133 -28.053902 -62.660133 -62.66014z" fill-rule="evenodd"/><path fill="#d9d9d9" d="m70.1943 181.17165l7.244095 0l0 20.440933l-7.244095 0z" fill-rule="evenodd"/><path stroke="#b7b7b7" stroke-width="2.0" stroke-linejoin="round" stroke-linecap="butt" d="m70.1943 181.17165l7.244095 0l0 20.440933l-7.244095 0z" fill-rule="evenodd"/><path fill="#d9d9d9" d="m109.91083 181.17165l7.244095 0l0 20.440933l-7.244095 0z" fill-rule="evenodd"/><path stroke="#b7b7b7" stroke-width="2.0" stroke-linejoin="round" stroke-linecap="butt" d="m109.91083 181.17165l7.244095 0l0 20.440933l-7.244095 0z" fill-rule="evenodd"/><path fill="#ffffff" d="m174.23131 86.28565l-24.408203 14.910652l0 -29.821304zm-23.595398 -56.95262l-6.7115936 27.805614l-21.08657 -21.086567zm-56.945168 -23.587946l14.910652 24.408201l-29.821312 0zm-56.95262 23.587946l27.805618 6.7190475l-21.08657 21.086567zm-23.587948 56.95262l24.408203 -14.910652l0 29.821304zm23.587948 56.945168l6.7190475 -27.798164l21.08657 21.08657zm56.95262 23.595398l-14.91066 -24.408203l29.821312 0zm56.945168 -23.595398l-27.798164 -6.7115936l21.08657 -21.08657zm-108.89545 -56.945168l0 0c0 -28.691345 23.258934 -51.950275 51.95028 -51.950275c28.691345 0 51.95028 23.25893 51.95028 51.950275c0 28.691345 -23.258934 51.95028 -51.95028 51.95028c-28.691345 0 -51.95028 -23.258934 -51.95028 -51.95028z" fill-rule="evenodd"/><path fill="#ffffff" d="m171.47281 65.45778l-19.718567 20.717987l-7.715973 -28.805218zm-37.527374 -48.907017l0.71151733 28.59476l-25.824028 -14.912153zm-61.108025 -8.050245l20.717987 19.718563l-28.805222 7.715967zm-48.908947 37.520164l28.596687 -0.7043152l-14.912151 25.824032zm-8.048316 61.11523l19.718567 -20.717987l7.7159653 28.805222zm37.518234 48.90175l-0.70238495 -28.589493l25.824024 14.912155zm61.11716 8.055511l-20.717987 -19.718567l28.805214 -7.7159576zm48.89982 -37.525436l-28.587555 0.7095871l14.91214 -25.824028zm-119.91907 -26.829277l0 0c-7.4235992 -27.713753 9.024818 -56.1982 36.738567 -63.6218c27.713753 -7.4235992 56.198204 9.024818 63.621803 36.738575c7.4235992 27.713745 -9.024811 56.198204 -36.73857 63.621803c-27.713753 7.4235992 -56.1982 -9.024826 -63.6218 -36.73858z" fill-rule="evenodd"/><path fill="#ffffff" d="m171.48553 107.123184l-27.43454 8.087227l7.715973 -28.805214zm-8.055527 -61.117165l-13.677322 25.121643l-14.912155 -25.824028zm-48.901733 -37.518234l8.087227 27.43453l-28.805214 -7.715967zm-61.11524 8.048317l25.119717 13.684536l-25.824028 14.912153zm-37.52016 48.908943l27.434532 -8.087227l-7.7159653 28.805214zm8.050246 61.108032l13.682606 -25.11251l14.912151 25.824028zm48.907013 37.527367l-8.087227 -27.43454l28.805214 7.715973zm61.109962 -8.057449l-25.11444 -13.6754l25.82402 -14.912155zm-90.45108 -83.1805l0 0c7.4235992 -27.713753 35.90805 -44.16217 63.621803 -36.73857c27.713753 7.4235992 44.162163 35.90805 36.738564 63.621803c-7.4235992 27.713753 -35.908043 44.162163 -63.621796 36.738564c-27.713753 -7.4235992 -44.16217 -35.908043 -36.73857 -63.621796z" fill-rule="evenodd"/><path fill="#ffffff" d="m31.017828 86.2856l0 0c0 -34.60623 28.053896 -62.66013 62.660133 -62.66013l0 0c16.6185 0 32.55635 6.601673 44.307404 18.352726c11.751053 11.751057 18.352722 27.688904 18.352722 44.307404l0 0c0 34.60624 -28.053894 62.66014 -62.660126 62.66014l0 0c-34.60624 0 -62.660133 -28.053902 -62.660133 -62.66014z" fill-rule="evenodd"/><path fill="#ffffff" d="m93.68069 41.399986l0 0l0 0c12.316902 0 24.129341 4.892872 32.838707 13.602238c8.709366 8.709366 13.602234 20.521801 13.602234 32.83871l0 68.86614c0 4.272461E-4 -3.3569336E-4 7.6293945E-4 -7.6293945E-4 7.6293945E-4l-92.88112 -7.6293945E-4l0 0c-4.272461E-4 0 -7.7438354E-4 -3.5095215E-4 -7.7438354E-4 -7.7819824E-4l7.7438354E-4 -68.865364l0 0c0 -25.648628 20.792324 -46.44095 46.440945 -46.44095z" fill-rule="evenodd"/><path stroke="#f9cb9c" stroke-width="2.0" stroke-linejoin="round" stroke-linecap="butt" d="m93.68069 41.399986l0 0l0 0c12.316902 0 24.129341 4.892872 32.838707 13.602238c8.709366 8.709366 13.602234 20.521801 13.602234 32.83871l0 68.86614c0 4.272461E-4 -3.3569336E-4 7.6293945E-4 -7.6293945E-4 7.6293945E-4l-92.88112 -7.6293945E-4l0 0c-4.272461E-4 0 -7.7438354E-4 -3.5095215E-4 -7.7438354E-4 -7.7819824E-4l7.7438354E-4 -68.865364l0 0c0 -25.648628 20.792324 -46.44095 46.440945 -46.44095z" fill-rule="evenodd"/><path fill="#fff2cc" d="m62.491005 65.36619l0 0c-2.4613647 -3.444172 0.9511452 -10.085869 7.6220474 -14.834648l0 0c6.670906 -4.7487755 14.074066 -5.8063736 16.53543 -2.3622017l0 0c2.4613647 3.444168 -0.95114136 10.085865 -7.6220474 14.834644l0 0c-6.6708984 4.7487793 -14.074066 5.8063736 -16.53543 2.3622055z" fill-rule="evenodd"/><path fill="#fff2cc" d="m54.165012 80.14517l0 0c-1.9308205 -0.9306183 -2.3397598 -4.0540543 -0.9133835 -6.9763794l0 0c1.4263725 -2.9223251 4.147915 -4.5369186 6.078739 -3.6062927l0 0c1.9308205 0.9306183 2.3397598 4.0540466 0.9133835 6.976372l0 0c-1.4263725 2.9223251 -4.147915 4.5369263 -6.078739 3.6063004z" fill-rule="evenodd"/><path fill="#fff2cc" d="m70.19412 117.90816l46.960625 0l0 38.803146l-46.960625 0z" fill-rule="evenodd"/><path fill="#fff2cc" d="m34.997444 160.77895l0 0c0 -2.2526703 1.8261528 -4.078827 4.078823 -4.078827l109.196686 0c1.0817719 0 2.1192322 0.42973328 2.8841705 1.1946564c0.7649231 0.76493835 1.1946564 1.8023987 1.1946564 2.8841705l0 16.314789c0 2.2526703 -1.8261566 4.078827 -4.078827 4.078827l-109.196686 0c-2.2526703 0 -4.078823 -1.8261566 -4.078823 -4.078827z" fill-rule="evenodd"/><path stroke="#f9cb9c" stroke-width="2.0" stroke-linejoin="round" stroke-linecap="butt" d="m34.997444 160.77895l0 0c0 -2.2526703 1.8261528 -4.078827 4.078823 -4.078827l109.196686 0c1.0817719 0 2.1192322 0.42973328 2.8841705 1.1946564c0.7649231 0.76493835 1.1946564 1.8023987 1.1946564 2.8841705l0 16.314789c0 2.2526703 -1.8261566 4.078827 -4.078827 4.078827l-109.196686 0c-2.2526703 0 -4.078823 -1.8261566 -4.078823 -4.078827z" fill-rule="evenodd"/></g></svg>